<mxfile host="app.diagrams.net" modified="2022-04-04T15:49:37.401Z" agent="5.0 (Macintosh; Intel Mac OS X 10_15_7) AppleWebKit/605.1.15 (KHTML, like Gecko) Version/15.3 Safari/605.1.15" etag="rc1XrKge25qryk3xoKWr" version="16.6.6" type="github">
  <diagram id="x2TIR3rb8K0Ldml0S2W9" name="Page-1">
    <mxGraphModel dx="946" dy="620" grid="1" gridSize="10" guides="1" tooltips="1" connect="1" arrows="1" fold="1" page="1" pageScale="2" pageWidth="850" pageHeight="1100" math="0" shadow="0">
      <root>
        <mxCell id="0" />
        <mxCell id="1" parent="0" />
        <mxCell id="LWzhJ8rB8lUzYYooP--Z-15" value="" style="rounded=0;whiteSpace=wrap;html=1;" vertex="1" parent="1">
          <mxGeometry x="800" y="120" width="620" height="880" as="geometry" />
        </mxCell>
        <mxCell id="LWzhJ8rB8lUzYYooP--Z-7" value="" style="rounded=0;whiteSpace=wrap;html=1;" vertex="1" parent="1">
          <mxGeometry x="160" y="120" width="620" height="720" as="geometry" />
        </mxCell>
        <mxCell id="LWzhJ8rB8lUzYYooP--Z-2" value="Precipitation (present monthly average in mm)&lt;br&gt;wc2.1_30s_prec_01.tif&lt;br&gt;wc2.1_30s_prec_02.tif&lt;br&gt;&lt;div&gt;wc2.1_30s_prec_03.tif&lt;/div&gt;&lt;div&gt;wc2.1_30s_prec_04.tif&lt;/div&gt;&lt;div&gt;wc2.1_30s_prec_05.tif&lt;/div&gt;&lt;div&gt;wc2.1_30s_prec_06.tif&lt;/div&gt;&lt;div&gt;wc2.1_30s_prec_07.tif&lt;/div&gt;&lt;div&gt;wc2.1_30s_prec_08.tif&lt;/div&gt;&lt;div&gt;wc2.1_30s_prec_09.tif&lt;/div&gt;&lt;div&gt;wc2.1_30s_prec_10.tif&lt;/div&gt;&lt;div&gt;wc2.1_30s_prec_11.tif&lt;/div&gt;&lt;div&gt;wc2.1_30s_prec_12.tif&lt;/div&gt;" style="rounded=0;whiteSpace=wrap;html=1;" vertex="1" parent="1">
          <mxGeometry x="180" y="230" width="260" height="190" as="geometry" />
        </mxCell>
        <mxCell id="LWzhJ8rB8lUzYYooP--Z-4" value="Elevation (m)&lt;br&gt;wc2.1_2.5m_elev.tif" style="rounded=0;whiteSpace=wrap;html=1;" vertex="1" parent="1">
          <mxGeometry x="180" y="680" width="260" height="60" as="geometry" />
        </mxCell>
        <mxCell id="LWzhJ8rB8lUzYYooP--Z-6" value="&lt;h1&gt;Datasets&lt;/h1&gt;&lt;p&gt;~/efs/data/raw_data and derived&lt;/p&gt;" style="text;html=1;strokeColor=none;fillColor=none;spacing=5;spacingTop=-20;whiteSpace=wrap;overflow=hidden;rounded=0;" vertex="1" parent="1">
          <mxGeometry x="180" y="140" width="190" height="70" as="geometry" />
        </mxCell>
        <mxCell id="LWzhJ8rB8lUzYYooP--Z-8" value="Texture (USDA 12 classes)&lt;br&gt;TEXMHT_M_sl6_250m_ll.tif" style="rounded=0;whiteSpace=wrap;html=1;" vertex="1" parent="1">
          <mxGeometry x="180" y="440" width="260" height="60" as="geometry" />
        </mxCell>
        <mxCell id="LWzhJ8rB8lUzYYooP--Z-9" value="Soil pH (pH)&lt;br&gt;PHIHOX_M_sl6_250m_ll.tif" style="rounded=0;whiteSpace=wrap;html=1;fontColor=#000000;" vertex="1" parent="1">
          <mxGeometry x="180" y="520" width="260" height="60" as="geometry" />
        </mxCell>
        <mxCell id="LWzhJ8rB8lUzYYooP--Z-10" value="Soil Organic Carbon (g/kg)&lt;br&gt;ORCDRC_M_sl6_250m_ll.tif" style="rounded=0;whiteSpace=wrap;html=1;fontColor=#000000;" vertex="1" parent="1">
          <mxGeometry x="180" y="600" width="260" height="60" as="geometry" />
        </mxCell>
        <mxCell id="LWzhJ8rB8lUzYYooP--Z-11" value="Slope (degrees)&lt;br&gt;slope" style="rounded=0;whiteSpace=wrap;html=1;" vertex="1" parent="1">
          <mxGeometry x="180" y="760" width="260" height="60" as="geometry" />
        </mxCell>
        <mxCell id="LWzhJ8rB8lUzYYooP--Z-12" value="Calculate slope&lt;br&gt;r.slope.aspect" style="rounded=1;whiteSpace=wrap;html=1;fontColor=#000000;" vertex="1" parent="1">
          <mxGeometry x="880" y="760" width="100" height="60" as="geometry" />
        </mxCell>
        <mxCell id="LWzhJ8rB8lUzYYooP--Z-16" value="&lt;h1&gt;Processing&lt;/h1&gt;&lt;p&gt;GRASS GIS&lt;/p&gt;" style="text;html=1;strokeColor=none;fillColor=none;spacing=5;spacingTop=-20;whiteSpace=wrap;overflow=hidden;rounded=0;" vertex="1" parent="1">
          <mxGeometry x="820" y="140" width="190" height="70" as="geometry" />
        </mxCell>
        <mxCell id="LWzhJ8rB8lUzYYooP--Z-19" value="Resample&lt;br&gt;Match WorldClim data resolution&lt;br&gt;_res" style="rounded=1;whiteSpace=wrap;html=1;fontColor=#000000;" vertex="1" parent="1">
          <mxGeometry x="840" y="300" width="190" height="60" as="geometry" />
        </mxCell>
        <mxCell id="LWzhJ8rB8lUzYYooP--Z-24" value="" style="rounded=1;whiteSpace=wrap;html=1;fontColor=#000000;" vertex="1" parent="1">
          <mxGeometry x="550" y="480" width="120" height="60" as="geometry" />
        </mxCell>
      </root>
    </mxGraphModel>
  </diagram>
</mxfile>
